<?xml version="1.0" standalone="no"?>
<!DOCTYPE svg PUBLIC "-//W3C//DTD SVG 20010904//EN"
 "http://www.w3.org/TR/2001/REC-SVG-20010904/DTD/svg10.dtd">
<svg version="1.0" xmlns="http://www.w3.org/2000/svg"
 width="165.000000pt" height="165.000000pt" viewBox="0 0 165.000000 165.000000"
 preserveAspectRatio="xMidYMid meet">

<g transform="translate(0.000000,165.000000) scale(0.100000,-0.100000)"
fill="#000000" stroke="none">
<path d="M623 1630 c-307 -80 -535 -314 -608 -621 -19 -84 -19 -284 0 -368 74
-313 313 -552 626 -626 84 -19 284 -19 368 0 313 74 552 313 626 626 19 84 19
284 0 368 -74 313 -313 552 -626 626 -93 21 -294 19 -386 -5z m372 -145 c259
-68 455 -283 503 -555 12 -70 13 -102 3 -178 -39 -323 -280 -564 -603 -603
-329 -41 -646 180 -735 511 -22 86 -22 244 0 330 98 367 471 589 832 495z"/>
<path d="M1085 1216 c-285 -75 -465 -213 -575 -440 -43 -90 -87 -231 -96 -312
-7 -53 -6 -54 19 -54 38 0 156 26 228 51 306 104 494 325 564 661 23 107 21
118 -17 118 -18 -1 -73 -12 -123 -24z m49 -126 c-36 -157 -183 -350 -265 -350
-55 0 -129 74 -129 129 0 81 191 228 348 265 31 8 58 15 59 15 1 1 -5 -26 -13
-59z"/>
</g>
</svg>
